<svg id="svg" version="1.1" xmlns="http://www.w3.org/2000/svg" xmlns:xlink="http://www.w3.org/1999/xlink" width="400" height="462.5189681335357" viewBox="0, 0, 400,462.5189681335357"><g id="svgg"><path id="path0" d="M163.704 101.311 C 144.158 112.608,116.322 128.680,101.845 137.026 L 75.524 152.200 75.731 179.818 C 76.027 219.357,76.180 224.957,77.017 226.807 C 80.505 234.514,90.733 234.589,94.268 226.934 L 95.144 225.038 95.227 194.340 L 95.310 163.642 104.635 158.249 C 172.494 119.010,199.599 103.473,200.008 103.580 C 200.278 103.651,223.877 117.206,252.451 133.704 L 304.402 163.699 304.325 224.052 L 304.249 284.405 257.056 311.663 C 231.100 326.655,209.761 338.863,209.636 338.790 C 209.511 338.718,209.408 324.486,209.408 307.162 L 209.408 275.666 211.153 275.282 C 232.229 270.654,247.953 248.618,245.871 226.627 C 242.168 187.519,195.358 169.970,167.423 197.216 C 141.991 222.022,152.850 264.916,187.102 274.951 L 189.833 275.751 189.907 365.976 L 189.982 456.200 194.875 459.373 C 197.566 461.118,199.872 462.506,200.000 462.456 C 200.127 462.407,202.330 461.018,204.895 459.368 L 209.560 456.369 209.481 409.266 C 209.407 364.633,209.431 362.139,209.936 361.700 C 210.230 361.445,235.975 346.518,267.147 328.529 L 323.824 295.821 323.824 224.007 L 323.824 152.194 261.931 116.461 C 227.890 96.808,199.859 80.738,199.640 80.750 C 199.421 80.762,183.249 90.015,163.704 101.311 M204.793 204.728 C 221.875 208.230,230.979 227.209,222.890 242.455 C 212.686 261.688,185.205 260.968,176.051 241.227 C 167.194 222.126,184.216 200.510,204.793 204.728 " stroke="none" fill="#fbfbfb" fill-rule="evenodd"></path><path id="path1" d="M165.402 59.283 C 146.457 91.805,130.633 118.962,130.239 119.631 L 129.521 120.847 130.239 120.470 C 130.633 120.262,146.428 111.163,165.338 100.248 C 184.248 89.334,199.817 80.464,199.936 80.537 C 200.131 80.658,200.126 53.058,199.924 14.568 L 199.848 0.152 165.402 59.283 M154.996 129.280 C 130.494 143.442,110.142 155.229,109.771 155.472 C 109.399 155.716,105.992 161.236,102.201 167.739 L 95.307 179.563 95.226 202.459 L 95.144 225.355 94.132 227.410 C 90.273 235.247,79.215 234.209,76.421 225.746 C 76.237 225.190,76.005 222.134,75.904 218.955 L 75.721 213.175 37.860 278.156 L -0.000 343.137 0.000 344.827 L 0.000 346.516 94.678 401.179 C 146.751 431.244,189.430 455.842,189.519 455.842 C 189.609 455.842,189.648 415.334,189.606 365.824 L 189.530 275.805 186.960 275.063 C 161.905 267.830,147.607 241.224,155.433 216.399 C 161.105 198.407,177.848 185.256,196.651 184.023 L 199.598 183.830 199.799 166.979 C 200.071 144.178,200.054 103.485,199.772 103.511 C 199.647 103.522,179.498 115.118,154.996 129.280 M197.420 204.558 C 166.294 207.407,166.361 253.212,197.496 256.293 L 199.697 256.511 199.697 230.551 L 199.697 204.591 200.683 204.468 C 202.487 204.244,200.143 204.309,197.420 204.558 M218.058 212.140 C 218.710 212.807,219.311 213.354,219.395 213.354 C 219.478 213.354,219.013 212.807,218.361 212.140 C 217.709 211.472,217.107 210.926,217.024 210.926 C 216.941 210.926,217.406 211.472,218.058 212.140 " stroke="none" fill="#3cb44c" fill-rule="evenodd"></path><path id="path2" d="M99.848 57.666 L 0.152 115.240 0.085 229.168 C 0.046 294.998,0.131 342.903,0.285 342.640 C 0.433 342.390,17.508 313.096,38.231 277.542 L 75.910 212.898 75.696 182.530 L 75.482 152.161 102.460 136.586 L 129.439 121.010 164.607 60.645 C 183.949 27.445,199.723 0.238,199.660 0.186 C 199.596 0.133,154.681 25.999,99.848 57.666 M102.203 159.728 L 95.301 163.733 95.299 171.598 C 95.297 175.924,95.347 179.407,95.409 179.337 C 95.471 179.268,98.421 174.226,101.966 168.134 C 105.510 162.041,108.604 156.749,108.840 156.373 C 109.077 155.998,109.233 155.698,109.188 155.707 C 109.142 155.716,105.999 157.526,102.203 159.728 " stroke="none" fill="#8bc43c" fill-rule="evenodd"></path><path id="path3" d="M200.075 40.247 L 200.152 80.566 234.143 100.203 C 252.838 111.003,280.732 127.117,296.131 136.013 L 324.129 152.186 324.052 224.074 L 323.976 295.962 267.223 328.725 C 236.009 346.744,210.299 361.657,210.090 361.863 C 209.788 362.162,209.726 371.889,209.787 409.200 L 209.863 456.162 304.924 401.298 L 399.984 346.434 399.992 230.945 L 400.000 115.456 300.683 58.127 C 246.058 26.597,201.058 0.603,200.682 0.364 L 199.998 -0.071 200.075 40.247 M200.000 126.961 C 200.000 139.703,199.909 157.730,199.799 167.021 L 199.597 183.915 201.240 183.916 C 231.355 183.932,253.586 215.857,243.855 245.112 C 238.898 260.012,226.282 271.708,211.002 275.570 L 209.712 275.896 209.712 307.325 L 209.712 338.755 210.698 338.180 C 211.241 337.865,232.477 325.605,257.891 310.937 L 304.097 284.268 304.097 223.990 L 304.097 163.712 296.131 159.120 C 291.749 156.594,268.384 143.113,244.209 129.161 C 220.034 115.209,200.197 103.794,200.127 103.794 C 200.057 103.794,200.000 114.219,200.000 126.961 M199.697 230.532 L 199.697 256.511 201.897 256.293 C 223.653 254.140,233.503 228.326,218.546 212.660 C 213.851 207.741,207.140 204.561,201.442 204.554 L 199.697 204.552 199.697 230.532 " stroke="none" fill="#04843d" fill-rule="evenodd"></path><path id="path4" d="M323.973 223.976 C 323.973 263.619,324.008 279.837,324.052 260.015 C 324.095 240.193,324.095 207.758,324.052 187.936 C 324.008 168.115,323.973 184.332,323.973 223.976 M304.097 224.036 C 304.014 257.370,304.048 284.541,304.174 284.415 C 304.299 284.289,304.368 257.016,304.325 223.808 L 304.249 163.429 304.097 224.036 M75.690 181.335 C 75.691 183.839,75.738 184.823,75.795 183.522 C 75.852 182.221,75.852 180.172,75.794 178.969 C 75.737 177.767,75.690 178.832,75.690 181.335 M196.282 184.129 C 196.658 184.202,197.272 184.202,197.648 184.129 C 198.024 184.057,197.716 183.998,196.965 183.998 C 196.214 183.998,195.907 184.057,196.282 184.129 M200.683 184.132 C 201.142 184.202,201.893 184.202,202.352 184.132 C 202.811 184.063,202.436 184.006,201.517 184.006 C 200.599 184.006,200.224 184.063,200.683 184.132 M232.322 197.572 C 233.481 198.741,234.498 199.697,234.582 199.697 C 234.665 199.697,233.785 198.741,232.625 197.572 C 231.466 196.404,230.449 195.448,230.365 195.448 C 230.282 195.448,231.162 196.404,232.322 197.572 M166.749 197.648 L 165.857 198.634 166.844 197.743 C 167.386 197.253,167.830 196.809,167.830 196.757 C 167.830 196.522,167.580 196.729,166.749 197.648 M197.652 204.467 C 198.113 204.536,198.796 204.535,199.170 204.462 C 199.543 204.390,199.165 204.333,198.331 204.336 C 197.496 204.338,197.191 204.397,197.652 204.467 M181.184 211.988 C 180.446 212.739,179.912 213.354,179.995 213.354 C 180.078 213.354,180.750 212.739,181.487 211.988 C 182.224 211.237,182.759 210.622,182.676 210.622 C 182.592 210.622,181.921 211.237,181.184 211.988 M76.001 217.602 C 76.001 221.024,76.045 222.424,76.099 220.713 C 76.153 219.002,76.153 216.203,76.099 214.492 C 76.045 212.781,76.001 214.181,76.001 217.602 M245.897 226.707 C 245.897 227.291,245.960 227.530,246.036 227.238 C 246.113 226.946,246.113 226.468,246.036 226.176 C 245.960 225.884,245.897 226.123,245.897 226.707 M153.345 227.618 C 153.345 228.369,153.404 228.676,153.477 228.300 C 153.549 227.925,153.549 227.310,153.477 226.935 C 153.404 226.559,153.345 226.866,153.345 227.618 M173.706 230.349 C 173.706 231.935,173.757 232.583,173.819 231.791 C 173.882 230.998,173.882 229.700,173.819 228.907 C 173.757 228.115,173.706 228.763,173.706 230.349 M225.867 230.349 C 225.867 230.933,225.930 231.172,226.006 230.880 C 226.082 230.588,226.082 230.110,226.006 229.818 C 225.930 229.526,225.867 229.765,225.867 230.349 M153.345 233.080 C 153.345 233.832,153.404 234.139,153.477 233.763 C 153.549 233.388,153.549 232.773,153.477 232.398 C 153.404 232.022,153.345 232.329,153.345 233.080 M245.897 233.991 C 245.897 234.575,245.960 234.814,246.036 234.522 C 246.113 234.230,246.113 233.752,246.036 233.460 C 245.960 233.168,245.897 233.407,245.897 233.991 M218.039 248.938 L 217.147 249.924 218.134 249.033 C 218.676 248.542,219.120 248.099,219.120 248.046 C 219.120 247.812,218.869 248.018,218.039 248.938 M166.768 263.126 C 167.927 264.294,168.944 265.250,169.028 265.250 C 169.111 265.250,168.231 264.294,167.071 263.126 C 165.912 261.958,164.895 261.002,164.811 261.002 C 164.728 261.002,165.608 261.958,166.768 263.126 M189.681 365.797 L 189.833 455.994 189.909 366.025 C 189.951 316.542,189.883 275.953,189.758 275.828 C 189.632 275.702,189.598 316.188,189.681 365.797 M209.408 307.114 C 209.408 324.464,209.511 338.722,209.636 338.800 C 209.761 338.877,209.863 324.682,209.863 307.255 C 209.863 289.828,209.761 275.569,209.636 275.569 C 209.511 275.569,209.408 289.764,209.408 307.114 M209.556 408.953 C 209.556 434.825,209.592 445.455,209.636 432.573 C 209.680 419.692,209.680 398.523,209.636 385.532 C 209.592 372.541,209.556 383.080,209.556 408.953 " stroke="none" fill="#88cda6" fill-rule="evenodd"></path></g></svg>